<?xml version="1.0" encoding="UTF-8"?>
<svg width="419px" height="104px" viewBox="0 0 419 104" version="1.1" xmlns="http://www.w3.org/2000/svg" xmlns:xlink="http://www.w3.org/1999/xlink">
    <title>Combined Shape</title>
    <g id="Design-v3" stroke="none" stroke-width="1" fill="none" fill-rule="evenodd">
        <g id="Saffola-Masala-Oats_Landing-Page_Desktop_v3.1" transform="translate(-830.000000, -1134.000000)" fill="#FCC517">
            <g id="products" transform="translate(0.000000, 737.000000)">
                <g id="add-ons" transform="translate(796.000000, 389.000000)">
                    <path d="M402.063358,8.41487749 C402.292527,8.54040696 403.185956,8.78608606 403.008267,8.41129094 C402.830577,8.03649582 403.855198,8.35390604 404.046173,8.31804048 C404.238808,8.28396819 404.994403,8.35928587 405.281696,8.57985908 C405.570649,8.80222556 406.668338,8.76815328 406.591948,8.66952298 C406.515558,8.57089269 407.470431,8.34493965 408.881983,8.38797832 L409.400106,8.73408099 L410.363282,9.37428127 C410.447976,8.69104232 410.86812,8.47584895 411.298228,8.89547602 L412.194979,8.60855153 C413.136567,8.30907409 414.312306,8.43460355 415.373461,8.88650963 C415.772017,9.05507777 416.344941,9.40656028 417.045735,8.99051976 C417.362919,8.80222556 418.214832,9.22005936 418.766168,9.46394518 C419.035193,9.58409481 418.090283,9.86563947 418.699742,10.0897992 C418.872449,10.152564 419.204579,9.80825457 419.43873,9.83336047 C419.812377,9.87101931 420.380319,9.98220255 420.488261,10.2027758 L420.832015,10.9147072 C421.590932,11.126314 422.613892,11.4347578 423.107105,11.5997394 C423.600317,11.7665142 425.186237,12.0408858 425.481833,11.9888807 C425.779089,11.9386689 426.684143,12.2130405 426.896706,12.1359295 C427.107609,12.0588186 427.542699,11.9996404 427.497861,12.3224305 C427.453024,12.6434272 428.549052,12.1807615 428.735045,12.1179968 C428.85904,12.0761536 429.242096,12.0885073 429.660826,12.102455 L429.978072,12.1123928 C430.083723,12.115257 430.188113,12.117399 430.287752,12.1179968 C430.883925,12.1233766 432.375188,12.8102021 432.53295,12.7617836 C432.690711,12.7115718 433.222119,12.6792928 433.233744,12.8568273 C433.245368,13.0343619 433.790061,13.5526192 434.40118,13.4217099 C435.012299,13.2908006 436.887172,14.0260446 437.607894,14.2233052 L437.832081,15.0338669 C437.945006,15.4355612 439.012803,15.4875663 439.215402,16.2712288 L439.306738,16.6262979 C439.995907,16.8970829 440.671792,17.1589015 440.811286,17.2109065 C440.950781,17.2647049 441.203199,17.6395 441.058723,17.9318043 L441.070347,17.9371842 L441.678145,18.1954162 C441.440672,18.6275962 441.264643,19.3108352 441.286232,19.7125295 L441.346015,20.0944977 L441.473885,20.8978863 C441.658217,21.7765926 441.928903,22.5190097 442.078362,22.5494954 L442.224499,22.5602551 L442.378939,22.5710148 C442.548325,22.5692215 442.699444,22.6409526 442.71273,22.7288232 C442.727675,22.8202804 442.397206,23.0713394 442.070058,23.2273545 L441.801033,23.4013025 C441.739589,23.4407546 441.786087,23.6541547 441.842549,23.7635447 C441.867459,23.8101699 442.043488,23.817343 442.146448,23.8065834 C442.204571,23.7994103 442.246087,23.6900203 442.307531,23.6792606 L442.657928,23.623669 C443.04652,23.5752505 443.348758,23.6416018 443.32883,23.7707178 C443.310563,23.8980406 443.60948,24.5077551 444.039588,24.8377183 L444.321899,25.2017537 L444.502909,25.4348799 C444.532801,25.906512 444.140888,26.1199121 443.632729,25.9118919 C443.124571,25.7038716 441.89569,25.8706465 442.312513,26.8659158 C442.729336,27.8629784 442.819011,30.5636552 442.403849,30.6891847 C441.987026,30.8147142 440.854463,31.2289614 441.0006,31.2684135 C441.146737,31.3096589 441.696412,31.652175 442.07338,31.9157869 L442.216195,32.226024 C442.424607,32.6815167 442.595239,32.561367 442.767323,32.3849533 L442.861568,32.2862694 C443.003858,32.139239 443.151896,32.0177592 443.32717,32.206298 L443.572946,32.4734964 C444.087747,32.6779301 444.361754,33.0832109 444.184065,33.3719287 C444.006375,33.6606465 444.527819,35.1670001 444.630779,35.8753449 L444.296989,36.533478 C443.934967,37.2418228 444.604209,38.4540788 445.45114,38.5240167 L446.168541,38.5849881 C446.970634,38.7302437 447.312728,38.8683261 446.929118,38.8952252 C446.545508,38.9203311 445.459443,39.1893229 445.459443,39.4332087 C445.459443,39.6770945 445.846375,40.4302713 446.31966,40.3477805 L446.768035,40.286809 L447.020454,40.2509435 C447.294461,40.2491502 447.734533,40.2975687 448.000237,40.3621267 C448.14106,40.3965577 448.585139,40.3728386 449.063922,40.3459229 L449.42532,40.3259955 C449.724913,40.3103209 450.011836,40.2987642 450.220525,40.3047418 C450.846589,40.3262612 451.593882,41.8164753 451.51251,41.943798 L451.18038,41.8971728 C450.522763,41.8039223 450.174027,42.2755545 450.428106,42.7597395 C450.602474,43.0950825 450.760236,43.5200894 451.074098,43.6922441 L451.763268,44.0706258 C451.806445,44.7197925 451.984134,45.1071406 452.158502,44.929606 L452.332871,44.8901539 C452.512221,44.8471152 452.806156,44.8829808 452.914098,44.9905775 C453.018719,45.0910011 453.028683,45.3761323 452.939008,45.4998685 C452.640091,45.8961829 452.226589,46.1311024 451.627095,46.0557847 C451.51417,46.0414384 451.263412,46.2655982 451.253449,46.392921 C451.240163,46.5292101 451.392943,46.74799 451.542402,46.8143413 L452.02565,47.031328 C452.590271,47.2267953 452.572004,47.6284896 451.984134,47.9261737 L451.466012,47.9566595 L451.045867,47.9799721 C450.441391,47.657182 449.949839,47.8329233 449.954821,48.3709067 L449.865146,48.7295623 L449.733954,49.249613 C449.15937,49.4092147 448.415399,49.5634366 448.081609,49.5903358 C447.746157,49.617235 447.82919,50.7380338 448.046735,51.3441618 C448.26428,51.9484965 448.661175,53.9336553 448.31576,54.0896705 C447.968684,54.2456857 448.277565,55.2929601 448.483486,55.4758745 C448.687745,55.6605821 449.026518,56.2828496 448.755832,56.4532111 L448.413738,56.5859136 C448.123125,56.6988902 447.766085,56.1106949 447.443919,56.6343321 L447.404064,56.6988902 C447.116771,56.6468851 446.588685,56.4729371 446.231645,56.3151286 C445.874606,56.1555269 444.469696,56.433485 443.876845,56.5733607 C443.666305,56.6223979 443.283399,56.5805174 442.85561,56.4966326 L442.836622,56.8110027 C442.572513,56.7836004 441.870403,56.4858782 441.421816,56.1235972 C441.168468,56.0429863 440.962078,55.9688633 440.844499,55.9170209 C440.364572,55.7036208 438.594319,55.827357 438.222334,55.7520393 C437.852009,55.6785149 436.905439,55.1602576 436.789194,55.3736576 C436.672948,55.5852645 436.435475,56.3348547 436.481974,56.6343321 C436.528472,56.9338096 437.670998,57.0952046 437.941684,57.0916181 L438.062912,57.1992147 C438.142311,57.2703855 438.176303,57.3760558 438.207963,57.4850316 L438.247593,57.6153927 C438.313631,57.8073252 438.427943,57.9695398 438.841756,57.9201125 L438.961323,57.9057663 C439.15894,58.3236001 439.607315,58.3702253 439.954391,58.0079832 L440.032442,58.8203381 L440.047388,58.9853197 C440.484138,59.1305753 441.22977,59.2345854 441.704715,59.2166526 L441.79273,59.7151839 L441.865798,60.1204648 C441.980383,60.5849238 441.872441,60.8341894 441.628326,60.6745877 C441.38421,60.5149859 440.484138,60.4091825 440.338001,60.5365053 C440.191864,60.6656213 439.487749,60.8126701 439.110781,60.566991 C439.040411,60.5205899 438.95241,60.4563471 438.854987,60.3837194 L438.650012,60.2300859 L438.650012,60.2300859 L438.434509,60.0709044 C438.110655,59.8363773 437.800529,59.6398662 437.7258,59.7367032 L437.759013,59.8174008 C437.969915,60.3517976 438.471431,60.9077138 438.388399,61.3918989 L438.295403,61.9514017 C437.699229,62.5880154 437.3671,63.2425619 437.558074,63.4057502 C437.747388,63.5689385 438.557785,63.5312797 438.866666,63.2694611 L439.079229,62.9628105 L439.217063,62.7637567 C439.255258,62.4804187 439.341612,62.2706052 439.411359,62.2939178 L439.441251,62.3351632 L439.886305,62.9430845 C440.424355,62.6274675 441.0006,62.4337935 441.165004,62.5126977 C441.329409,62.5933952 441.277929,63.1188257 440.66681,63.5115536 L441.060384,64.1481674 L441.224788,64.4153658 C441.658217,64.2934229 442.216195,64.6664247 442.463632,65.242067 C442.709408,65.8177093 443.026592,66.4650827 442.910347,66.5672995 C442.794101,66.6677231 442.194607,66.7089685 441.84421,66.4238373 L441.517062,66.1745716 L441.473885,66.1404993 C441.292874,66.1566388 441.05208,66.3162406 440.937495,66.4955684 C440.82125,66.6731029 440.69338,67.2828175 440.995618,67.3115099 C441.297856,67.3384091 442.191286,67.5876747 441.923921,67.7652093 C441.656557,67.9409505 440.983994,68.6259828 441.091936,68.846556 C441.201539,69.0689224 441.651575,69.6158723 441.79439,69.452684 L441.9206,69.4221982 C442.349047,69.3146015 442.986737,69.7700942 443.460022,70.6236946 L443.655978,70.9787636 C443.385292,71.3804579 443.091358,71.7821522 443.005004,71.8682295 C442.916989,71.9543069 442.895401,72.3147558 443.14782,72.4689777 L443.380311,72.470771 C443.994751,72.4779441 444.192368,72.6662383 443.929985,73.1701494 C443.858577,73.3118184 443.689191,73.5323916 443.73735,73.5772236 L444.011357,73.8372489 C443.928325,74.1367263 443.569625,74.3321936 443.214246,74.2730155 L443.054823,73.8587682 L442.990058,73.6937866 C442.109914,73.618469 442.136484,73.8551817 443.053163,74.2210104 L442.694462,74.959841 L442.505148,75.3507756 C442.360672,75.804475 442.375618,76.2976264 442.540022,76.4464685 C442.706087,76.5953106 443.036556,77.3556605 442.802405,77.6407917 C442.566592,77.9223364 441.453957,78.3168576 441.437351,78.5822627 L441.546954,78.7669704 L441.759517,79.1202462 C441.938867,79.5739455 441.932224,79.8052784 441.744571,79.6331237 C441.556918,79.460969 440.819589,79.3031605 440.603705,79.3856513 C440.387821,79.4681421 439.603994,79.4591757 439.334969,79.3910312 C439.064283,79.3228866 438.302045,79.4806951 438.436558,79.590085 C438.57107,79.699475 439.069265,80.1334483 439.288471,80.2822904 C439.509337,80.4311324 440.211792,80.0563373 440.288182,80.0491642 C440.367893,80.0419911 440.519012,80.2356651 440.477496,80.5459022 C440.443764,80.7979699 441.186204,80.6285892 441.580709,80.5350484 L441.73399,80.4990717 C441.754055,80.4945767 441.771038,80.4909831 441.784427,80.4885173 C441.99865,80.4508585 442.344065,80.7216435 441.968759,80.8920049 C441.593452,81.0623663 440.560528,81.3690169 440.480817,81.2094151 C440.399445,81.0498134 439.980962,80.8184805 439.858073,80.8399998 C439.733525,80.8597259 439.228687,81.776091 439.022767,81.7581582 C438.815186,81.7384322 438.144283,82.0988811 437.978219,82.6027922 L438.177496,83.1102899 C438.363489,83.5855086 438.625872,83.8903659 439.217063,83.942371 L439.333308,83.9531306 C439.479445,84.0876265 439.434608,84.4426955 439.23533,84.7385864 C439.036052,85.0344773 438.079518,85.606533 437.968255,85.7338558 C437.855331,85.8629718 437.87858,86.3722628 437.739085,86.4027485 C437.601251,86.4368208 437.480024,86.7380915 437.433526,86.7757503 C437.387027,86.8169957 437.486666,87.0626748 437.719157,87.2689018 C437.953309,87.4715422 438.456486,88.3681813 438.423273,88.8936118 L438.167533,89.1841228 C437.466739,89.9821316 437.632804,90.3963788 438.627532,90.8787706 L439.396413,91.2535657 C438.899879,91.796929 438.331937,92.5142402 438.13598,92.8442034 C437.938363,93.1759599 437.337208,93.5973802 437.883562,93.635039 L437.812154,94.3792495 L437.782262,94.6859 C437.798394,94.8124542 437.816831,94.9573072 437.836061,95.1083712 L437.894624,95.5681092 C437.923587,95.7952072 437.950936,96.0090831 437.971576,96.168941 L438.26385,96.4199999 L438.612587,96.7212706 C438.498002,97.0870994 438.272153,97.7344728 438.10941,98.1594797 L438.456486,98.5952463 L439.316702,99.6730064 C438.589337,100.124912 437.971576,100.514054 437.941684,100.53916 C437.911793,100.566059 438.434897,101.60078 439.313381,102.657021 L439.957712,103.711469 L440.142045,104.010946 C439.783344,103.914109 439.444572,103.828032 439.386449,103.820859 C439.331648,103.811892 439.009482,103.908729 438.803561,104.050398 C438.597641,104.192067 437.85367,104.53817 437.679302,104.557896 C437.504934,104.577622 436.686233,104.715704 436.295981,104.905792 L435.922335,105.070773 L435.472299,105.268034 C434.949194,105.187337 433.655549,105.368458 432.597715,105.667935 C431.538221,105.967412 428.105659,106.191572 427.51945,106.347587 L426.973096,106.422905 L426.411797,106.498223 C425.822266,106.639892 424.339306,106.788734 423.117069,106.826393 L421.99447,106.831773 L421.419885,106.835359 C420.848622,107.048759 420.049849,107.572396 419.64133,107.993817 L419.116565,107.303405 C419.045157,107.210154 418.125157,107.522185 418.116854,107.497079 C417.841186,106.763628 417.28985,108.035062 416.897937,107.35003 L416.761764,107.113317 C416.168912,107.484526 415.458154,107.723032 415.184147,107.642334 L415.126024,107.687166 L414.57801,108.126519 C413.873895,108.058375 413.06848,108.124726 412.789491,108.275361 C412.510502,108.425997 411.364654,108.106793 411.080683,108.158798 C410.795051,108.20901 409.441622,108.413444 408.715918,108.409857 C407.990215,108.408064 406.063862,108.922735 405.872887,108.757753 C405.683573,108.590978 404.497869,109.08951 403.953176,109.270631 L403.521408,109.166621 L402.784079,108.983706 C402.030145,109.103856 401.050361,109.240145 400.605308,109.288564 C400.45751,109.305301 400.245869,109.349734 400.026294,109.396625 L399.762575,109.452459 C399.415412,109.524168 399.105188,109.576325 399.060904,109.50555 C398.977871,109.372848 398.205669,109.577281 397.785525,109.907244 C397.365381,110.235414 395.67484,109.756609 395.292891,109.926971 L395.158378,109.837307 L394.553902,109.430232 C394.052386,109.754816 393.085888,109.952076 392.408343,109.869586 L391.865311,110.020221 L391.308993,110.176236 C390.787549,110.016634 389.8443,109.903658 389.213254,109.925177 L388.632027,110.002288 L388.085673,110.074019 C387.502785,110.251554 386.632605,110.176236 386.152677,109.905451 L385.511667,110.221068 L385.050006,110.448814 C384.360837,110.414742 383.053906,110.516959 382.145531,110.672974 L381.230513,110.432675 L380.622715,110.273073 C379.804015,110.504406 378.92221,110.724979 378.66647,110.762638 C378.40907,110.800297 377.545532,110.542065 377.299756,110.656835 C377.05398,110.769811 376.198746,110.730359 375.627482,110.71422 C375.05788,110.696287 373.588205,111.008317 373.533404,110.882788 C373.476942,110.757258 373.320841,110.744705 373.302573,111.115914 C373.284306,111.487122 372.130155,110.80209 371.894343,110.793124 C371.65687,110.785951 370.610661,110.830783 370.117448,110.898927 C369.927751,110.924447 369.613751,110.912032 369.279002,110.891169 L368.873971,110.863965 C368.472236,110.836481 368.10027,110.813816 367.937016,110.846922 C367.581637,110.918653 366.289652,110.721393 365.827991,110.655041 C365.36467,110.586897 363.712324,110.685527 363.219111,110.590483 C362.725898,110.493646 361.417307,111.169712 361.19478,111.196611 C360.970592,111.221717 360.278101,111.02087 360.009076,111.047769 C359.847661,111.063909 359.50032,111.049706 359.121293,111.02569 L358.737418,110.999164 C358.609747,110.989739 358.484268,110.979983 358.366694,110.970658 C357.780485,110.92224 356.07998,110.773398 355.870738,110.773398 C355.663157,110.771605 355.140053,110.972452 354.973988,110.735739 C354.807923,110.497233 353.401353,110.766225 352.943014,110.82361 C352.486335,110.882788 350.833989,111.01011 350.199621,111.347247 L349.420777,110.836163 L348.851174,110.461367 C347.912907,110.438055 346.48641,110.58869 345.679334,110.798504 L344.862295,110.477507 L344.739407,110.430882 C344.380706,110.820023 343.734714,110.898927 343.304606,110.610209 C342.872837,110.321492 340.753848,110.861268 339.820564,110.963485 C338.888939,111.063909 336.38302,110.448814 336.248507,110.420122 C336.113994,110.39143 335.198977,110.558204 334.33876,110.681941 L333.526703,110.407569 L333.051757,110.246174 C332.776089,110.782364 332.248003,111.051356 331.881,110.848715 C331.512335,110.644282 330.496018,110.351977 330.263527,110.554618 C330.032697,110.759052 329.130964,111.236064 328.93999,111.02087 C328.747354,110.803884 327.76425,110.49006 326.97046,110.567171 L326.427427,110.805677 C325.809666,111.072875 325.251688,111.013697 324.776742,110.755465 L324.240352,110.463161 C323.821869,110.71422 323.280497,110.839749 323.038042,110.748292 C322.795588,110.655041 321.925407,110.447021 321.677971,110.398603 C321.430534,110.351977 320.596888,110.561791 320.307935,110.750085 C320.018982,110.940173 319.062448,110.748292 318.806708,110.827196 C318.549307,110.9061 317.518044,110.803884 317.1992,110.794917 C316.882016,110.785951 316.016817,110.610209 315.991908,110.409362 C315.965337,110.206722 315.787648,109.645426 315.66642,109.717157 C315.545193,109.790681 315.206421,109.810407 315.126709,109.63108 C315.048659,109.455338 314.522233,109.322636 314.256529,109.437406 L314.112053,109.765575 C313.994147,110.032774 313.426205,110.134991 313.087432,110.346598 C312.119274,110.950932 312.094364,110.954519 311.071404,110.237208 L310.910321,110.126024 C310.682812,110.007668 310.322451,110.048913 310.109888,110.217482 C309.895664,110.382463 308.992271,110.707046 308.695015,110.468541 C308.397759,110.231828 307.519275,109.726123 307.477759,109.935937 C307.434582,110.14575 306.959636,110.748292 306.514582,110.79671 C306.071189,110.843336 303.786136,110.631729 302.298194,110.938379 L300.853429,110.443435 L300.405054,110.291006 C299.644477,110.724979 298.900506,110.898927 298.752708,110.678354 C298.606571,110.455988 297.915741,110.873821 297.83603,110.945552 C297.757979,111.01549 297.078773,111.040596 296.391265,111.029837 C296.124546,111.025652 295.665197,110.97238 295.188142,110.905246 L294.778982,110.845129 C294.170977,110.752327 293.61632,110.653248 293.486789,110.622762 C293.226067,110.561791 292.259569,110.925826 291.944046,111.115914 C291.630183,111.302415 290.059209,111.236064 289.406574,111.698729 L288.642675,111.056736 L288.187657,110.674767 C287.649607,110.834369 286.950474,110.82361 286.631629,110.651455 C286.312785,110.4793 285.371196,111.193025 285.030763,111.243237 C284.691991,111.295242 283.674013,110.972452 283.639139,110.780571 C283.604266,110.58869 283.124338,110.199549 282.689248,110.565378 L282.372064,110.880994 L282.00506,111.243237 C281.588237,111.085428 281.088382,111.035216 280.894086,111.132053 C280.698129,111.230684 280.073725,111.377733 280.038852,111.169712 C280.003978,110.963485 279.819646,110.891754 279.700079,111.451257 L278.956108,111.148193 L278.567516,110.990384 C278.240369,111.085428 277.780369,111.194818 277.542896,111.23427 C277.307084,111.271929 276.42694,110.920447 276.142969,110.983211 C275.858998,111.047769 274.860947,110.972452 274.552067,110.782364 C274.243186,110.592277 273.142175,110.69808 272.653945,110.563584 L272.225497,110.4793 C272.042826,110.443435 271.652573,110.716013 271.61936,110.674767 C271.252357,110.244381 271.077988,110.617383 270.784053,110.741119 C270.64788,110.79671 270.337339,110.49544 270.08326,110.398603 C270.038422,110.382463 269.810913,110.581517 269.807592,110.680147 L269.805931,110.771605 C269.970335,110.875615 270.051707,111.008317 269.988603,111.067495 C269.925498,111.128467 269.614956,111.090808 269.395751,111.006524 C269.178206,110.92224 268.263188,110.986798 267.844704,111.151779 L267.466076,111.149986 C266.874885,111.148193 266.056185,110.748292 265.743983,110.970658 L265.136185,111.393872 C264.644633,111.14102 264.028532,110.959899 263.764489,110.988591 C263.498785,111.017284 262.633587,111.332901 262.399436,111.505055 C262.166945,111.679003 261.952721,110.907894 261.914526,110.870235 C261.87467,110.830783 261.326656,110.861268 260.702252,110.92762 C260.076187,110.993971 258.060159,111.200198 257.605141,111.243237 C257.150123,111.284482 255.876405,110.16189 255.71034,110.325078 C255.544275,110.486473 255.14738,111.275516 254.451568,111.356213 C253.754096,111.438704 251.097057,110.610209 249.969476,110.299972 L248.98305,111.137433 L248.712365,111.366973 C248.031498,111.237857 247.329044,111.049563 247.149694,110.952726 C246.972004,110.852302 246.242979,111.017284 245.944062,110.868442 C245.643485,110.717806 244.650416,111.117707 244.495976,111.139227 C244.339875,111.164332 243.464713,111.108741 242.905074,111.03701 C242.343775,110.965279 240.058721,111.157159 239.044065,111.366973 L238.190491,110.778778 C238.168903,110.764431 236.121322,111.236064 236.094752,111.259376 C235.98847,111.34904 235.897134,111.501469 235.774246,111.526575 L235.254463,111.632378 C234.774535,111.392079 234.419157,111.029837 234.462333,110.825403 C234.50551,110.620969 234.357713,110.03636 234.160095,110.03636 C233.962478,110.03636 233.543994,110.194169 233.695113,110.38605 L233.713381,110.592277 L233.73829,110.852302 C233.728326,111.24503 233.298218,111.47457 232.783417,111.3598 L232.335042,111.35442 L231.976342,111.34904 C231.597713,111.456637 230.850421,111.574993 230.317353,111.618032 C229.784285,111.659277 228.214971,111.34904 227.899448,111.481743 C227.583924,111.614445 226.536055,111.323934 226.237138,111.479949 C225.939882,111.635965 224.93851,111.366973 224.775766,111.44767 L224.609701,111.470983 C223.829196,111.57858 223.12176,111.558854 222.308042,111.311381 L221.598944,111.094395 C220.865823,111.110175 220.093407,111.118241 219.610462,111.119299 L219.377721,111.119185 C219.311027,111.118919 219.255879,111.118424 219.214252,111.117707 C219.110738,111.115316 219.006671,111.036611 218.899528,110.949737 L218.76932,110.845928 C218.59331,110.713917 218.406844,110.630772 218.199595,110.875615 L217.993675,111.132053 L217.880751,111.271929 C217.771148,111.435117 217.23974,111.668244 216.70169,111.793773 C216.163639,111.917509 214.551149,111.307795 214.282124,111.253996 C214.011438,111.198405 213.468406,111.25579 213.285734,111.167919 C213.104724,111.081842 212.349128,111.182265 212.116637,111.212751 C211.885807,111.24503 210.867829,111.302415 210.362992,111.24503 C209.859815,111.189438 208.541259,110.845129 208.51801,110.753672 C208.493101,110.662215 208.207469,110.861268 207.925159,111.388492 L207.063282,110.931206 C206.825809,110.805677 206.181477,111.417185 205.689925,111.478156 L205.263138,111.531954 C204.75664,111.327521 203.959528,111.537334 203.489565,112 L202.772164,111.449464 L202.363644,111.13564 C201.691081,110.870235 201.040107,110.80209 200.915558,110.985005 C200.79101,111.169712 200.208122,111.626998 200.030432,111.399252 C199.852743,111.173299 199.178519,110.947346 198.846389,111.293448 L198.535848,111.451257 C198.358158,111.540921 197.820108,111.426151 197.815126,111.381319 L197.740397,110.499026 C196.875199,110.249761 196.122925,110.273073 196.068123,110.549238 C196.014982,110.825403 195.528412,111.332901 195.068412,111.246823 L194.698087,111.345453 C194.410795,111.420771 194.216499,111.668244 194.181626,111.218131 C194.145091,110.741119 193.748196,110.628142 193.462564,110.845129 C192.662132,111.45843 191.752096,111.044183 190.910147,111.169712 L190.325598,111.257583 C189.677945,111.350833 189.056862,111.431531 188.943938,111.436911 L188.840978,111.420771 L188.141844,111.304208 C187.18531,111.139227 186.660545,110.913273 186.974408,110.803884 C187.288271,110.6927 186.64726,110.113471 186.590798,109.926971 C186.534336,109.74047 186.152386,109.550382 186.127477,109.950283 C186.102567,110.353771 185.77874,111.332901 185.464878,111.182265 L185.255636,111.01011 L185.006539,110.805677 C184.760762,110.402189 184.201124,110.273073 183.762712,110.516959 C183.32264,110.760845 182.107045,110.952726 181.949283,110.647868 C181.791522,110.343011 181.065818,109.796061 180.725385,110.195962 L180.722063,110.516959 L180.7121,111.467396 C180.144158,111.503262 179.220837,111.420771 178.662858,111.280895 C178.10488,111.142813 176.487408,111.363386 176.374484,111.318554 C176.26156,111.271929 175.705242,111.096188 175.411307,110.995764 C175.115712,110.898927 173.818745,110.981418 173.189359,111.196611 L172.780839,111.051356 L172.380622,110.907894 C172.126543,110.357357 171.63167,110.04174 171.282933,110.212102 C170.932536,110.378877 170.14871,110.933 170.185244,111.080048 L170.171959,111.216337 L170.160334,111.336487 C170.083944,111.46381 169.924522,111.546301 169.808277,111.517608 C169.690371,111.492502 169.25362,111.137433 169.007844,110.877408 C168.763728,110.613796 167.727483,111.167919 167.5664,111.184058 C167.406978,111.198405 166.712827,111.085428 166.377375,110.995764 L166.340841,110.854095 L166.217953,110.382463 C166.661346,110.382463 167.343873,110.346598 167.734126,110.299972 C168.124378,110.25514 168.300407,109.293943 167.920119,109.225799 C167.53983,109.159448 166.41391,109.216832 166.408928,109.530656 L166.246184,109.819374 C166.048567,110.174443 165.711455,110.712426 165.402574,110.730359 C164.549001,110.776984 165.221564,109.995115 164.864524,109.704604 L164.813044,109.663359 C164.730011,109.61494 164.382936,109.919797 164.040842,110.343011 C163.697088,110.764431 161.895283,110.751878 161.333984,110.785951 C160.772684,110.821816 160.159905,109.803234 159.990518,110.183409 C159.821132,110.565378 161.030085,110.845129 161.103153,110.904307 C161.176222,110.967072 161.212756,111.307795 161.023442,111.517608 L160.824164,111.544507 L160.571746,111.576786 C160.274489,111.45843 159.6368,111.008317 159.156873,110.576137 L159.038966,109.048264 C159.02236,108.843831 158.432829,108.474415 158.404598,108.495935 C157.393263,109.229027 157.327468,108.831224 157.325469,108.358643 L157.325176,108.087756 C157.32287,107.977578 157.314659,107.874564 157.288642,107.79297 L157.272036,107.737378 C157.117595,107.620815 156.966476,107.823455 156.933263,108.185697 C156.90005,108.546146 156.554635,109.209659 156.230809,108.919148 C155.908643,108.63043 155.412108,109.930557 155.302506,110.179823 C155.194563,110.429088 154.689726,111.198405 154.490448,111.232477 C154.29117,111.266549 153.178535,111.196611 152.336586,111.25041 L151.57933,111.289862 L151.418247,111.297035 C151.243879,111.372353 151.097742,111.318554 151.09276,111.178679 C151.089439,111.040596 151.116009,110.705253 151.104384,110.445228 C151.09442,110.183409 151.695576,109.627493 152.036009,109.670532 L152.306694,109.731503 L152.555792,109.787095 C152.779979,109.973596 153.276514,110.213895 153.660124,110.319698 L154.03377,110.36991 C154.21312,110.39143 154.540268,110.301766 154.590087,110.190582 L154.796008,109.744056 C154.970376,109.236558 155.405466,108.813345 155.764166,108.806172 L155.878751,108.653743 C156.136152,108.30764 156.134491,107.769657 156.450014,107.509632 L157.047848,107.012894 C156.704094,106.58968 156.247415,106.207712 156.031531,106.164673 C155.815646,106.119841 155.148065,106.417525 155.148065,106.944749 C155.148065,107.471973 154.711315,108.834864 154.219762,108.851004 L153.925827,109.215039 C153.560485,109.663359 153.208427,109.711777 152.662073,109.306496 L152.384745,109.102063 C151.853337,109.371054 151.210666,109.962836 150.956587,110.414742 C150.704168,110.866648 149.415504,111.282689 149.613121,110.990384 C149.810739,110.696287 150.461713,109.82834 150.579619,109.634666 C150.699186,109.442785 149.983446,108.940668 149.853916,108.619671 L149.66128,108.474415 L149.196298,108.121139 C148.902363,107.627988 148.563591,107.081038 148.440703,106.899917 C148.319476,106.717003 147.708357,107.315958 147.535649,107.611849 L147.542292,107.882633 L147.545613,108.051202 C147.598754,108.273568 147.465902,108.838451 147.250018,109.310083 C147.034133,109.781715 146.97435,111.187645 146.891317,111.216337 C146.806624,111.248616 146.512689,111.201991 146.421354,111.047769 C146.331678,110.897134 145.855072,110.360944 145.64417,110.138577 C145.433267,109.918004 146.408068,109.385401 146.524314,109.200693 C146.637238,109.017779 146.630595,108.707541 146.260271,108.951427 C145.889946,109.19352 144.810524,108.495935 144.576372,108.562286 C144.342221,108.628637 144.601282,109.430232 144.6976,109.688465 L144.732473,109.928764 L144.767347,110.174443 C144.752401,110.432675 144.229297,110.561791 143.606553,110.463161 L143.098394,110.49006 L143.012041,110.493646 C142.930669,111.056736 142.747997,111.44767 142.606842,111.361593 C142.465687,111.273722 141.718395,111.307795 141.265038,111.444084 L141.251752,111.418978 L140.977745,110.900721 C141.452691,110.82361 141.788142,110.590483 141.723377,110.384256 C141.660272,110.179823 141.203594,109.722537 140.919623,110.034567 C140.635652,110.346598 139.601067,111.103361 139.179262,111.103361 C138.757457,111.103361 137.603306,111.071082 137.598324,111.035216 C137.596663,110.995764 137.820851,110.872028 138.106483,110.841542 C138.392114,110.811057 139.220778,110.441641 139.222439,110.097332 C139.222439,109.754816 140.416446,109.360295 140.642294,109.317256 C140.866482,109.272424 141.520778,109.010605 141.612113,108.881489 L141.57724,108.790032 C141.535723,108.677056 141.334785,108.499521 141.266698,108.519247 C140.125832,108.84921 139.001573,109.241938 137.769371,109.195313 L136.940707,109.164827 C136.540491,109.72433 136.045617,110.273073 135.839697,110.382463 C135.635437,110.493646 135.197025,109.909038 135.094065,109.83372 C134.992765,109.760196 134.509517,109.52169 134.28699,109.426646 C134.066123,109.333395 133.533055,108.976533 133.662585,108.863557 C133.792116,108.75058 134.283668,108.517454 134.46634,108.601738 L134.51948,108.723681 L134.810094,109.372848 C135.444462,109.270631 136.072187,109.112822 136.2067,109.024952 C136.339552,108.935288 136.580346,108.456482 136.573704,108.22515 C136.568722,107.993817 135.671971,107.577776 135.369733,107.527564 L135.351466,107.441487 C135.087422,106.123428 134.293632,106.871225 134.142513,107.321337 C133.875149,108.130106 133.006629,108.200044 132.475221,108.634017 L132.001936,109.021365 C131.689734,109.523483 131.374211,109.722537 131.299482,109.464305 L131.262947,109.225799 L131.194861,108.797205 C130.635222,108.560493 129.798255,108.157005 129.336594,107.90236 L129.253562,107.593916 C129.049302,106.831773 128.514573,106.806667 127.818761,106.812046 C127.518183,106.81384 127.167786,106.476703 126.926992,106.541261 C126.69118,106.604026 126.586559,106.998547 126.38396,107.217327 L126.314213,107.294438 C126.050169,107.323131 126.041866,107.466593 126.294285,107.610055 C126.546703,107.755311 127.011685,108.273568 126.799122,108.461862 C126.586559,108.65195 125.015585,107.968711 125.201578,107.744551 L125.289592,107.523978 C125.553635,106.871225 125.196596,106.489256 124.436018,106.751075 C123.838185,106.955509 123.677102,106.49105 123.310098,106.456977 L122.845116,106.412145 C122.295441,106.455184 121.259196,106.652445 120.541796,106.853292 L120.149883,106.647065 L119.655009,106.390626 C119.204973,106.444424 118.525768,106.593267 118.143818,106.720589 C117.760208,106.847912 116.43335,106.449804 116.139415,106.388833 C115.84548,106.327861 115.098188,106.439045 114.729524,106.408559 C114.546022,106.393316 114.166979,106.365969 113.793333,106.377849 L113.714,106.381 L113.770881,106.415188 C113.989198,106.560806 114.240647,106.815702 114.363343,106.976905 L114.413213,107.048759 C114.434193,107.083236 113.828123,107.099255 112.824718,107.101364 L112.435,107.101 L112.412782,107.115534 C112.334472,107.140913 112.222169,107.126463 112.108412,107.105128 L112.084,107.1 L112.069397,107.100658 C111.979046,107.100345 111.886658,107.099956 111.792337,107.099493 L111.745,107.099 L111.786212,107.088523 L111.786212,107.088523 L111.884,107.063 L111.795307,107.053411 C111.739219,107.051969 111.696944,107.062109 111.678123,107.093591 L111.675,107.098 L111.503681,107.097883 L111.503681,107.097883 L111.479,107.097 L111.477193,107.078232 C111.475432,107.039544 111.478292,106.990777 111.487149,106.930403 L111.487,106.925 C111.382257,106.918951 111.280992,106.904974 111.184587,106.881955 L111.138,106.868 L111.101748,106.880976 C110.974931,106.928441 110.836378,106.994288 110.718292,107.054307 L110.646,107.091 L110.574402,107.090514 C110.358181,107.088469 110.135901,107.086162 109.908399,107.083607 L109.85,107.082 L109.829219,107.063309 C109.782474,107.017472 109.73765,106.967003 109.6923,106.916581 L109.672,106.894 L109.279273,106.998547 C108.679778,106.919643 107.726566,106.864052 107.160284,106.876604 C106.943122,106.882122 106.57439,106.939104 106.164632,107.017859 L106.117,107.026 L106.208778,107.02888 C106.596993,107.035787 106.98287,107.042326 107.363584,107.048441 L107.371,107.048 C107.347939,107.05699 107.328693,107.067947 107.310591,107.082831 C107.129581,107.231674 106.481927,107.423554 106.251097,107.201188 L106.019,107.046 L105.914738,107.067487 C105.324294,107.188274 104.696775,107.340098 104.33552,107.441487 C104.209726,107.47612 104.034715,107.489128 103.828036,107.488172 L103.613,107.482 L103.657078,107.459691 C103.837345,107.374058 104.271519,107.220826 104.4571,107.267179 L104.514058,107.294438 C104.658535,107.419968 105.103589,107.192221 105.229798,107.070279 C105.248065,107.052858 105.26945,107.036719 105.293324,107.021991 L105.311,107.012 L105.039937,107.007108 L105.039937,107.007108 L104.261277,106.991532 C104.131887,106.988872 104.002759,106.986181 103.873999,106.983462 L103.592,106.977 L103.68874,106.921436 C103.719739,106.881506 103.769101,106.852925 103.832397,106.833322 L103.867,106.825 L102.445,106.856 L102.381364,106.822451 C102.264479,106.756931 102.154063,106.688566 102.059643,106.621959 L102.029,106.608 L102.242195,106.599016 C103.227838,106.555354 104.432716,106.513747 105.67763,106.478691 L106.359568,106.460246 C106.473526,106.457289 106.587547,106.454393 106.701494,106.451561 L107.383225,106.43537 C108.514393,106.40976 109.611329,106.391254 110.539396,106.383231 L110.658,106.382 L110.669297,106.227438 C111.10937,106.015831 111.305326,105.759392 111.104388,105.660762 C110.903449,105.560338 110.257456,105.468881 110.104677,105.675108 C109.951897,105.883128 109.279334,106.392419 109.287637,105.890302 L109.264388,105.648209 C109.252764,105.531646 109.146482,105.320039 109.11659,105.325419 L108.749587,105.377424 C108.352692,105.456328 108.108576,105.212442 108.204894,104.834061 L107.55392,104.993662 L107.431031,105.024148 C107.321429,105.142505 106.896302,105.128158 106.482801,104.993662 C106.069299,104.857373 104.4867,104.851994 104.030022,104.875306 C103.571683,104.896825 102.121936,104.283524 101.741647,104.328356 C101.363019,104.373188 100.356666,104.561482 100.208868,104.170548 C100.05941,103.77782 98.3223704,103.541107 98.1662694,103.582353 L98.1430203,103.55366 L97.3342841,102.472313 C95.9028045,102.307332 94.6191226,102.14235 94.4829494,102.099312 C94.3467762,102.05986 93.7007836,102.079586 93.1909643,102.04372 C92.681145,102.006061 90.578763,102.135177 89.660424,102.208702 L89.4777526,101.188326 C89.4594855,101.077143 89.0958033,100.887056 89.0194134,100.926508 L88.4929876,101.197293 C87.9599192,100.985686 87.4085836,100.668276 87.2674285,100.496121 C87.1262733,100.32038 86.2062736,99.9904166 85.9355878,99.870267 C85.6632413,99.7483241 84.831256,99.5151979 84.7166712,99.5510635 C84.6020864,99.5887223 84.2234584,99.4757458 84.1337834,99.2085474 L83.9610758,99.0363927 C83.8647582,98.9431422 83.5309677,98.928796 83.378188,99.0005271 C82.7836755,99.2784852 82.1227371,99.328697 81.6976109,99.3520096 C80.7776112,99.4004281 81.2276472,99.0561187 81.2791273,98.6651841 C81.2853792,98.6170821 81.258533,98.5666965 81.2232716,98.516714 L81.1671537,98.4423781 C81.0640129,98.3078812 80.9905651,98.1865898 81.4601381,98.1343738 C81.7955892,98.0967149 82.1277191,97.9640124 82.4349392,97.82593 C82.7820149,97.671708 82.7222315,97.510313 82.4565276,97.2628406 L82.1692353,96.9974355 C82.4615096,96.7571362 83.0311123,96.2765377 83.4379713,95.930435 C83.8448304,95.5825391 84.3363826,94.2447536 83.8880073,94.1748158 L83.5608594,94.2124746 L83.1772494,94.2555133 C82.7703903,94.3935957 82.1393436,94.3595234 81.7773221,94.176609 C81.4153006,93.9936947 81.5016543,92.4299562 81.6394882,91.8094819 C81.7773221,91.1872144 82.0878635,89.5284322 82.0297408,89.5087062 C81.9749393,89.4871868 81.531546,89.7579718 81.2110407,90.1184207 L80.7759506,89.5230524 L80.5550843,89.2199884 C80.6381167,88.9330639 80.8938567,88.4219796 81.1246869,88.0848433 L80.7211492,87.9198618 L80.5069254,87.8319911 C80.0087307,88.0722904 79.7114744,88.0131122 79.8493083,87.7010818 L79.8775394,87.4410565 L79.9539292,86.7237453 C79.6002109,86.0207803 79.278045,85.1886992 79.2415107,84.8748756 C79.2033158,84.5610519 79.656673,83.5263304 80.3275753,83.2411992 C80.9968169,82.9542747 80.991835,81.3152185 80.5036041,81.4461278 L80.2196331,81.6541481 L79.9173949,81.8765146 C79.5703193,82.079155 78.899417,81.743812 78.4277926,81.1287176 L78.6735687,80.6068737 C78.7549405,80.4383056 78.7449766,80.2338719 78.8462762,80.0778567 C79.0870703,79.7012683 79.3693807,79.3479925 79.6317633,78.9821637 C79.9256982,78.5697098 80.2661313,79.5111808 80.6098857,78.9445049 L80.707864,78.7813166 C81.1180443,78.7024124 81.0715462,78.5248778 80.608225,78.3832089 L80.5866366,78.2307802 C80.551763,77.977928 80.7792719,77.6676909 80.9735679,77.4327715 C81.0765281,77.3090353 81.3671417,77.319795 81.5332067,77.2175781 C81.9350838,76.971899 82.0546505,76.2276886 81.6577553,76.1182986 C81.1662032,75.9802162 81.0350119,75.8062682 80.8523405,75.4207135 L80.7560228,75.218073 C80.0602108,75.1499285 80.1282974,74.8845233 80.9054812,74.6316711 C81.6843257,74.3788189 83.7800651,73.3136117 84.7532055,73.8874607 L85.9372484,73.7117194 C86.1714,73.6776471 86.6712554,74.1385196 86.7692337,74.4415836 L87.0116885,75.1911739 C87.5796305,74.9741872 87.8835293,74.4989685 87.6892334,74.1349331 L87.724107,73.8282825 C87.8303886,72.8975712 88.0097387,71.9686531 88.2339263,71.0558746 L88.2854064,70.8514409 C88.5976085,70.6828727 88.9911824,70.4856121 89.1605686,70.4192608 C89.3126103,70.3586879 89.6667181,69.914132 89.9593021,69.8123112 L90.0656224,69.7916135 C90.0747892,69.7915059 90.0544566,69.7912805 90.0063893,69.7909426 L89.8737978,69.7901186 C87.20548,69.7747477 57.9051142,69.6502135 58.009237,69.5871798 C58.1205005,69.5226218 58.4792007,69.201625 58.6087313,69.0671292 C58.7399226,68.9344266 59.3593448,69.4383377 59.4556624,69.5208285 C59.5503194,69.6033193 60.0701027,69.7073294 60.1132795,69.3379142 C60.1597777,68.9702921 60.5649761,68.3336784 60.9386222,68.5650113 C61.3122683,68.7963442 62.3385495,68.3013994 62.2621596,68.2260817 C62.1857698,68.1525573 62.1724846,67.8494933 62.4016542,67.7167908 L62.5278635,67.7670025 C63.050968,67.9678497 63.6537837,68.7210265 63.8248306,67.5159436 L63.8281519,67.4908377 C63.9892349,67.4854579 64.3844694,67.5589823 64.7049747,67.654026 C65.02548,67.750863 66.0683677,67.3653083 66.3706059,67.3473755 C66.6711834,67.3294427 67.6144321,67.4101402 68.0760926,67.4101402 C68.5377531,67.4083469 69.3265615,66.6533769 68.9977529,66.506328 C68.6689444,66.3610725 67.9598472,65.5702369 68.1375366,65.0699123 C68.3152261,64.5695877 66.5017971,63.1511047 66.6562375,63.1044795 C66.8139992,63.0596476 66.9817248,62.6185011 66.5067791,62.2777783 L66.516743,61.9908538 L66.5416527,61.3452737 C66.0650464,61.3309275 65.4954437,61.1533929 65.2745774,60.9489592 L65.1234583,60.7355591 L64.7846858,60.2549606 C65.0005702,59.7044242 65.0105341,58.7844726 64.8062743,58.2142101 L64.6800649,57.6744334 L64.6402094,57.5058653 C64.7116173,57.2817055 65.1666352,57.3229509 65.6515447,57.5991158 C66.1347937,57.8734873 67.6343599,57.3803358 67.6742155,57.2870854 C67.7140711,57.1956282 67.5596307,56.8315927 67.2507499,56.6881305 L67.1062735,56.7634482 L66.772483,56.9373961 C66.3407142,57.1669357 66.0584038,57.1651425 66.1430969,56.9338096 L66.2111835,56.7204095 L66.2809308,56.498043 C66.3473568,56.2505706 66.3058405,56.0820025 66.1895951,56.1250412 C66.071689,56.1662866 65.560209,56.2164983 65.3111116,56.1411807 C65.0603536,56.0676563 65.5552271,54.9881029 65.7478624,54.4572925 L66.4320499,54.3263832 C66.5665625,54.2994841 66.8106779,54.2403059 66.8090173,54.2098202 L66.7010751,52.9921843 C67.7821577,52.5223455 68.4347929,52.0058814 68.1524825,51.8444864 C67.8701721,51.6812981 66.7774649,51.8893183 66.6014361,51.8408998 C66.5289536,51.8209628 66.2638818,51.7386954 65.906507,51.621015 L65.5799198,51.5121014 C65.1205679,51.3569939 64.5780815,51.1656779 64.102159,50.978333 L63.0443254,51.164834 C62.5693798,51.2473248 62.5129177,50.9926793 62.3850477,50.6250573 L62.1957337,50.0763142 C61.8968168,50.4242101 61.2973224,50.5999514 60.863893,50.4744219 C60.4288029,50.3470992 59.083677,49.7822166 58.8163125,49.552677 L58.8511861,49.5096383 L59.2231715,49.0559389 C58.9906807,48.6022396 58.7116916,48.1467469 58.60541,48.0463234 C58.4991285,47.9423132 58.1404282,47.7952644 58.0474319,47.9458998 L57.9212225,48.0409435 L57.7352298,48.1826125 C57.497757,48.3009688 57.0161687,48.501816 56.6641111,48.6237589 C56.3137141,48.7457018 55.2044004,48.9555153 55.0283716,48.8030867 C54.8540034,48.6488648 54.4903212,47.972799 54.6729926,47.6930476 C54.8540034,47.4168827 56.1725589,47.8705821 56.6940028,47.883135 L56.7753746,47.5872442 C56.863389,47.2698339 56.5827393,46.5579025 56.4349415,46.5525227 L54.1050506,46.4610655 C54.4106101,45.038996 54.3857003,43.8392929 54.0485885,43.7926677 C53.7131374,43.7460425 53.1352314,44.4023823 53.0488777,44.323478 C52.9608633,44.2463671 52.7101052,44.020414 52.6802136,43.9953081 C52.6519825,43.968409 52.4626685,43.6599651 52.3264953,43.3658675 C52.190322,43.0717699 52.6519825,42.0711207 52.8064229,41.8308215 L52.8512604,41.5994886 L52.8927767,41.3842952 C52.8329933,41.1332363 52.6005024,40.9539085 52.3763147,40.9843942 L52.1753762,41.0256396 L52.0142932,41.0597119 C51.8415857,41.1135102 51.6489504,41.0292262 51.589167,40.8696244 L51.6472897,40.7943067 L51.9594918,40.3854393 C52.4958815,39.7757248 52.4327768,39.4601078 51.8199973,39.6824743 L51.4762429,39.7075802 L50.8219471,39.7559987 C50.0746549,39.7362727 49.4253411,39.5121129 49.3805035,39.2556741 L49.3937887,39.0727598 L49.5316226,37.1916111 C48.6415146,36.4115351 47.7929229,35.7157432 47.6451251,35.6422188 L47.6002875,35.5453818 L47.4209374,35.1508606 C47.4823814,34.682815 47.3163165,33.9009458 47.0539339,33.4149674 L46.6753059,33.276885 C45.7220933,32.9325756 45.742021,32.3192745 45.7901799,31.6270691 L45.808447,31.3670438 C45.8001438,30.8774789 45.3102522,30.678425 44.7207218,30.9223108 L45.107653,30.2928702 C45.4663533,29.7100549 44.8203607,29.7244011 44.6293861,29.4876884 C44.5762453,29.4213371 44.2125631,30.2354853 44.0249097,29.4805153 L44,29.3782984 C44.3005775,29.2061437 44.5978337,29.033989 44.6609384,28.9981234 C44.7240431,28.9586713 44.5463536,28.3561299 44.1145848,27.7446221 L44.2706858,27.0488302 C44.3105414,26.8677091 44.4483753,26.6883813 44.4284475,26.5216064 L44.4068591,26.3261391 C44.2723465,26.1217054 44.3072201,25.9872095 44.4815883,26.0284549 C44.6576171,26.0697003 45.4049093,25.9585171 45.7204326,25.6841455 C46.0376166,25.4115673 45.5742955,24.371466 45.8001438,24.2907685 L45.8566058,24.3356004 C46.447797,24.803646 46.9659195,24.8933099 47.4790601,24.2351768 L47.9207928,23.668501 C48.3973992,24.0701952 48.824186,24.2208306 48.8690236,24.0056372 C48.9155217,23.7904439 49.6594926,23.0480267 50.4217306,22.8328334 L50.9431745,23.8065834 L51.2138603,24.3104945 C51.9462066,23.7491985 52.4244736,23.2506672 52.2766758,23.2058352 C52.1305387,23.1610033 51.7618745,22.9189107 51.8067121,22.7754485 L51.839925,22.7772417 C52.1919827,22.791588 52.545701,22.8256603 52.896098,22.8722855 L53.0588416,22.8920115 C53.2315491,22.9511897 53.4441122,22.8507661 53.5288053,22.6732316 C53.6151591,22.4974904 54.2163141,22.5907408 54.2744368,22.4687979 C54.3325595,22.3450617 54.6696713,22.0025456 54.7825955,22.217739 C54.8971803,22.4311391 55.556458,22.6911644 55.8869272,22.1137288 L56.1459885,21.8393573 L56.2888043,21.6923085 C56.5860606,21.6510631 57.1456994,21.7568665 57.5293093,21.9290212 C57.9145799,22.1011759 59.3178286,21.7048614 59.5968176,21.8877758 C59.8758067,22.0671036 60.6961674,22.4813509 61.0050482,21.9577137 L61.2690914,21.5972648 L61.5298133,21.2421957 C62.0114016,21.2081234 62.6241812,21.2995806 62.8898851,21.4466294 C63.1555889,21.5954715 63.6936393,20.8781602 64.0141446,20.8889199 C64.3329892,20.8996796 65.243025,21.10232 65.3625918,21.199157 C65.4804979,21.295994 66.0368154,21.4412496 66.1696673,21.1435654 C66.3008586,20.8458812 66.9152988,20.1178103 67.2241796,20.2325801 C67.5330603,20.3437634 68.2803525,20.1823683 68.5228073,20.0855313 C68.7669227,19.986901 69.4610741,20.2809986 69.5839621,20.1895415 L69.6005686,20.096291 L69.6620126,19.7519816 C69.9476443,19.8004001 70.7032397,20.0801515 71.340929,20.3778357 L71.4206402,19.4381579 L71.4272828,19.3664268 C71.5651167,19.3036621 72.1994847,19.1261275 72.837174,18.9701124 C73.4732026,18.8140972 75.6121189,19.1691662 76.1667757,19.142267 L76.5669922,19.2462772 C76.9788332,19.3556671 77.2511796,19.8470253 77.2744287,19.0382569 C77.2760894,18.9539728 77.7510351,18.7925778 77.7659809,18.8123039 C78.2658363,19.4507109 79.0181104,18.9342468 79.1592656,18.7656786 C79.6126229,18.2223154 80.2486515,18.961146 80.7352217,18.4482684 L80.9195538,18.2545944 C81.7017196,18.5020668 82.4357266,18.7244333 82.5503114,18.7495391 C82.6665568,18.7728518 83.280997,18.4410953 83.7111052,18.0860263 C84.142874,17.7291639 85.6241731,18.355018 85.7055449,18.3137726 L85.7055449,18.2761137 L85.6723319,17.3167099 C86.3930537,17.5139705 87.4674937,17.4207201 88.0620062,17.1051031 L88.5768074,17.845727 L88.8308868,18.2115557 C89.3656158,17.9622901 90.0713917,17.6359134 90.4002003,17.4834848 L90.7406334,17.4099604 L90.8485756,17.3848545 C90.9598391,17.348989 91.3384671,17.3418158 91.6905248,17.3705083 C92.044243,17.400994 93.2830874,17.2916041 93.6517515,17.3633352 C94.0204156,17.4350663 94.942076,17.0279922 95.0334117,17.130209 C95.126408,17.2324259 95.5133393,17.4816915 95.5947111,17.348989 L95.6794042,17.239599 L95.7707399,17.1212426 C95.8853247,16.9957132 96.0098734,16.9724006 96.0480683,17.0674443 C96.0846026,17.1642813 96.2705953,17.4870714 96.3652524,17.5372832 L96.4532668,17.5139705 L97.1158658,17.3454024 C97.8664793,17.2055267 98.5888617,17.0369586 98.7233743,16.9652274 L98.8196919,16.8701837 L99.4939155,16.1869447 C100.005395,16.8181786 100.530161,17.1768343 100.661352,16.9849535 C100.792543,16.7930727 101.225973,16.4003448 101.355503,16.504355 C101.458582,16.5860772 101.654954,16.3578185 101.745657,15.8952554 L101.754,15.842 L101.896265,15.8307134 L101.896265,15.8307134 L102.144,15.81 L102.755431,16.407518 L102.923156,16.5707063 C103.421351,16.4792491 104.067344,16.4236575 104.362939,16.4469701 C104.655213,16.4684894 105.33608,16.6191248 105.356007,16.3859986 C105.375935,16.1528725 106.378967,16.1205935 106.535068,16.2873683 C106.667446,16.4287811 106.886448,16.2329112 106.932724,15.7313789 L106.938,15.637 L106.84144,15.6364084 C106.725609,15.6229588 106.567043,15.5852999 106.390875,15.5320375 L106.282,15.497 L106.518023,15.4805153 C107.109341,15.4379814 107.681832,15.3979581 108.208574,15.3627463 L108.345,15.353 L108.415179,15.3252562 C108.722115,15.2034535 108.998069,15.1036055 109.153063,15.0607661 C109.433713,14.9836551 110.817034,14.8670921 111.556023,14.8652988 L112.230246,14.8437795 L112.427864,14.8366063 C112.640427,14.7415626 112.846347,14.8043273 112.884542,14.9746888 C112.922737,15.1468435 113.719849,15.053593 113.832773,14.9137173 C113.945697,14.7756349 114.433928,14.4815373 114.611617,14.6375525 C114.790968,14.7953609 115.41205,15.053593 115.664469,14.924477 C115.916888,14.7971542 117.001292,14.4277389 117.514432,14.3900801 L117.682158,14.6196197 C118.050822,15.1235308 118.48093,14.1228817 118.884468,14.7594954 L119.055515,15.0320737 C119.686561,14.7361828 120.3475,14.6052735 120.525189,14.7379761 C120.701218,14.8742652 121.24259,15.1486367 121.292409,15.0231073 C121.342229,14.8957845 121.569738,14.5981004 121.685983,14.641139 C121.802229,14.6841777 122.184178,14.6285861 122.275514,14.4241524 C122.366849,14.2179254 123.848148,14.2842767 124.724971,14.1067422 L125.688148,14.382907 C126.46201,14.6052735 127.506559,14.6949374 128.434862,14.1103287 L128.879916,13.8305773 C129.721865,13.9758329 130.497388,14.1910262 130.600348,14.3075893 C130.704969,14.4259457 131.213128,14.4707776 131.470528,14.0870161 C131.726268,13.7014613 132.900347,14.3578011 132.981719,14.2071657 C133.06143,14.0565304 133.39356,13.7032546 133.441719,13.9489337 C133.488217,14.1946128 133.7506,14.4779507 133.939914,14.1533674 C134.129228,13.8305773 135.510888,14.3075893 136.07883,14.1587472 L136.754714,14.2627574 L137.643162,14.3990465 C138.715941,14.0134917 139.654208,13.8108513 139.728937,13.9489337 C139.802006,14.0870161 140.089298,14.3667675 140.173991,14.2107523 C140.260345,14.0529438 140.645615,13.6494562 140.859839,13.6297302 L140.93789,13.6978748 L141.570597,14.2573775 C142.415868,14.1695069 143.561716,14.1354346 144.116372,14.1802666 C144.671029,14.2233052 146.408068,13.9614866 146.814927,14.2896565 L147.294855,13.6907016 C147.376227,13.5902781 147.974061,13.8700295 148.327779,13.8574765 L149.370667,13.8269908 C150.516515,13.7498798 152.120702,13.5615856 152.932759,13.409157 L153.540557,14.0439774 L153.663445,14.1713002 C154.062001,14.0977758 154.663156,14.0403909 155.001928,14.0457707 C155.340701,14.0511505 156.171025,14.2322716 156.205899,14.0242514 C156.242433,13.8180244 157.350086,13.9310009 157.735357,14.3434549 L158.334851,13.8269908 L158.529147,13.6602159 C159.070519,13.7660193 159.71319,13.8825824 159.957305,13.9148614 C160.203082,13.9489337 161.098171,14.0565304 161.42698,14.0619102 L161.725897,14.0619102 C161.951745,14.0619102 162.185897,14.099569 162.396799,14.0529438 C162.630951,13.9991455 162.831889,13.8323706 163.066041,13.7875387 L163.205535,13.7624328 C163.388207,13.8485101 163.746907,13.8449236 164.002647,13.7534664 C164.260048,13.6620092 165.050517,13.9561068 165.444091,14.241238 L165.430805,13.4952343 L165.430805,13.4898545 C165.669939,13.4844747 166.521852,13.7104277 167.323945,13.9901791 L168.064595,14.0224581 L168.644162,14.0457707 C169.298457,13.7624328 169.954414,13.473715 170.100551,13.4037771 C170.246688,13.332046 170.784738,13.6691823 171.015569,14.1049489 L171.721345,13.8718227 C172.088348,13.7498798 172.754268,13.6315235 172.890442,13.7857454 C173.180225,14.1112254 173.37203,14.0072152 173.55823,13.8554591 L173.682547,13.751404 C173.82898,13.631529 173.984441,13.5340887 174.192391,13.6386966 L174.657372,13.873616 C175.318311,13.9041017 176.166903,14.0260446 176.542209,14.144401 L176.660115,14.0421842 L177.367552,13.4217099 C178.124808,13.731947 178.865458,13.8825824 179.011595,13.7570529 C179.159393,13.6279369 179.728995,13.3983973 179.880114,13.5938646 C180.029573,13.7875387 180.481269,14.338075 180.511161,14.3362818 C180.539392,14.3344885 180.987767,14.1300548 181.396287,13.9363807 C181.804807,13.7427067 183.505312,13.7176008 184.048344,13.7947118 C184.593037,13.873616 186.049426,13.7283605 186.469571,13.8933421 C186.891375,14.0583237 187.969137,13.4521957 188.341122,13.6638025 L188.352747,13.6494562 L189.379028,12.3995414 C190.7391,12.9285585 192.124081,13.3535654 192.457872,13.3463922 C192.791662,13.3374259 193.414406,13.2226561 193.372889,13.570552 C193.333034,13.9202412 194.633322,13.2423821 194.967113,13.106093 C195.302564,12.9698039 196.026607,13.073814 196.274044,13.1240258 C196.52148,13.1742376 197.15917,12.9931165 197.217292,13.1168527 C197.275415,13.2387956 197.574332,13.550826 197.690577,13.4001906 C197.806823,13.2495552 198.569061,12.8783467 199.148627,12.8819332 L199.626894,13.1276123 L201.055053,13.5938646 L201.382201,13.3750847 C201.810648,13.0863669 202.220829,12.9393181 202.295558,13.0522946 C202.368626,13.1652712 202.946532,13.5759318 203.306893,13.7893319 L204.06747,13.1329922 L204.153824,13.0576745 C204.341478,13.061261 204.670286,13.1760308 204.882849,13.3141132 C205.095412,13.4521957 206.405665,13.3983973 207.209419,13.073814 L207.274184,13.0146358 L207.576422,12.7295046 C207.956711,12.8765534 208.175917,13.4629553 208.064653,14.0332178 L209.039454,13.4755083 L209.778443,13.0522946 C209.728624,13.5866915 209.74357,13.7158075 209.814977,13.3410124 C209.886385,12.964424 210.955843,13.538273 211.012306,13.5239268 C211.068768,13.5077873 211.547035,13.4270898 211.947251,13.3374259 C212.349128,13.247762 213.847034,13.6871151 214.248911,13.7857454 C214.650788,13.8843757 215.642196,13.3804645 215.789993,13.5113738 C215.939452,13.6404899 216.354614,13.9883858 216.389488,13.9991455 C216.424361,14.0099051 216.623639,13.873616 216.799668,13.7193941 C216.974036,13.5651722 217.756202,13.3894309 218.068404,13.4970276 L218.36566,13.5185469 C218.538368,13.5328932 218.845588,13.2495552 218.895407,13.2890074 L219.398584,13.6960815 C219.915046,13.4880612 220.853313,13.4916478 221.48436,13.7032546 L222.072229,13.8843757 L222.306381,13.9561068 C222.596995,13.9543135 222.975623,13.8449236 223.14833,13.7158075 C223.319377,13.5866915 224.041759,13.5526192 224.269268,13.4001906 C224.496777,13.247762 225.941542,13.5813117 226.648979,13.6261436 L227.309917,13.6727689 L227.871217,13.7104277 C228.462408,13.8754093 229.040314,13.918448 229.156559,13.8036782 C229.272805,13.6871151 229.960313,13.4539889 230.425295,13.5346864 L230.782335,13.6907016 C231.157641,13.8556832 231.469843,14.3757339 231.491432,13.5221335 C231.493093,13.4970276 231.7671,13.4521957 231.908255,13.4629553 C232.775114,13.5239268 233.666882,13.7409134 234.498868,13.6207638 L235.139878,13.5293066 C235.646376,13.7391202 236.172802,13.9238278 236.312297,13.9435539 C236.451791,13.9614866 237.084499,13.8359572 237.434896,13.7480865 C237.783632,13.6566294 239.945797,13.8180244 240.545292,14.0009388 C241.143125,14.1874397 242.803775,13.2908006 243.187384,13.3051469 C243.572655,13.3194931 244.99085,13.1365787 245.475759,12.9177988 C245.962329,12.7008121 247.08825,13.6279369 247.21612,13.6117974 C247.34565,13.5938646 248.066372,13.1222325 248.373592,13.4826814 L248.690776,13.5472394 C249.021245,13.6117974 249.49287,13.2172762 249.791787,13.3069401 L250.412869,13.4916478 C250.741678,13.1598913 251.211642,12.9016593 251.455757,12.9195921 L251.608537,13.0164291 L251.892508,13.2011367 C252.15489,13.4575755 252.498645,13.5544125 252.656406,13.4163301 C252.812507,13.2782477 253.234312,13.106093 253.264204,13.3230796 C253.292435,13.538273 254.247308,13.5759318 254.403409,13.4037771 C254.55951,13.2334157 255.245359,13.0074627 255.393156,13.2047233 C255.539294,13.4001906 256.032506,13.9471404 256.128824,13.9399673 L256.162037,13.8772026 C256.638643,12.9859434 257.354383,13.7247739 257.945574,13.6835285 L258.231206,13.6620092 C258.648029,13.5239268 259.139581,13.4450225 259.323913,13.4844747 C259.509906,13.5257201 260.014743,13.5723453 260.343552,13.7050479 C260.67236,13.8359572 262.087233,13.4486091 262.686728,13.6135907 L263.350988,13.4647486 C263.717991,13.3840511 264.222828,13.7355336 264.569904,13.63511 L265.164416,13.4629553 C265.752286,13.5759318 266.65734,13.7050479 267.175463,13.7552597 L267.658712,13.6763554 L268.505643,13.538273 C269.455534,13.4629553 270.360588,13.3876376 270.515028,13.3714981 C270.669469,13.3553586 271.167663,13.6924949 271.403476,13.983006 C271.639288,14.273517 272.6938,13.8162311 272.869829,13.9489337 C273.045858,14.0834295 273.605497,14.3398683 273.723403,14.221512 L273.701814,14.1336413 C273.635388,13.8664429 273.377988,13.4037771 273.416183,13.3876376 L273.9725,13.1276123 C274.097049,13.5328932 274.321236,13.905895 274.469034,13.9543135 C274.618493,14.002732 275.040297,13.8574765 275.189756,13.7373269 C275.339214,13.6135907 275.86564,13.396604 276.036687,13.538273 C276.207734,13.6781487 276.686001,13.5562058 276.724196,12.964424 L277.592715,13.3571519 L277.619286,13.3697049 C277.481452,13.6745621 277.83351,13.8467168 278.401452,13.7552597 C278.969394,13.6620092 280.326144,14.3595944 280.449032,14.2502044 L280.445711,14.1533674 L280.425783,13.4755083 C280.945566,13.6010377 281.476974,13.8054714 281.608165,13.9327942 C281.737696,14.0601169 282.179429,14.3165557 282.215963,14.099569 C282.254158,13.8807891 282.641089,13.5472394 282.999789,13.8108513 C283.35849,14.0726699 284.823182,13.6602159 285.223399,13.6512495 C285.623615,13.6440764 286.669824,14.1318481 286.751196,14.2986229 C286.834228,14.4689843 287.916972,14.1515741 288.059787,13.9812127 C288.205925,13.809058 288.984769,13.6404899 289.240509,14.2591708 L290.012711,14.0654968 C290.398943,13.9686597 290.30637,13.8134791 290.164945,13.6687601 L290.068144,13.5745856 C289.942007,13.4530997 289.852764,13.3519609 290.102386,13.3194931 L290.703541,13.2423821 C291.3037,13.2563697 292.619827,13.2690103 293.817375,13.2721325 L295.557619,13.2728678 C296.157113,13.2728678 296.756608,13.2495552 297.354441,13.280041 L297.854297,13.3033536 C298.389026,13.3948108 299.237618,13.1688577 299.740794,12.7994424 L300.278845,13.4701284 L300.601011,13.8700295 C300.645848,13.5095806 300.924837,12.996703 301.222093,12.7330911 L301.474512,13.0146358 L301.87971,13.4683352 C302.367941,13.3302527 303.078699,13.1473384 303.460649,13.0630543 C303.842598,12.9787702 305.10137,12.7474374 305.403608,12.5627297 C305.705846,12.3762288 306.825124,12.8980727 307.220358,12.9231786 C307.613932,12.9482845 308.778047,13.125819 308.980647,13.0200156 C309.183246,12.9160055 310.000285,12.673913 310.531693,12.5591432 L310.930249,12.3367767 L311.685844,11.9171496 C312.00801,12.4138876 312.300284,12.6559802 312.333497,12.4569263 C312.368371,12.2560792 312.835013,11.7503747 313.275085,11.9117698 C313.716818,12.0731648 315.194796,12.4856188 315.643171,12.4856188 C316.089886,12.487412 317.675806,11.7718941 318.534362,11.7503747 L319.24678,11.7862403 C319.974145,11.8221059 320.65335,11.6822302 321.350823,11.7037495 L321.83075,11.719889 C322.221003,11.5082822 322.900208,11.4508973 323.343602,11.5961528 L323.566129,11.4760032 C324.263601,11.0976215 324.469522,11.2697762 324.547573,11.9010101 L324.554215,11.9548084 C324.944468,11.9673614 325.836236,11.57822 326.533709,11.0922417 L327.581579,11.8364521 L327.68786,11.9117698 C327.804106,11.9942606 327.907066,11.797 327.91869,11.4706234 C327.930315,11.14604 329.278762,11.5172486 329.592625,11.6140856 C329.908148,11.7127159 331.032408,11.6122923 331.364538,11.5298015 C331.698328,11.4473107 332.741216,11.190872 333.00858,11.2572233 C333.277606,11.3235746 334.323815,10.9595391 334.918327,11.0258904 C335.511179,11.0922417 337.261503,10.9792652 337.5106,11.081482 C337.759698,11.1872854 338.291106,11.6248453 338.344246,11.4867629 C338.399048,11.3504737 338.719553,11.1191409 338.842441,11.5172486 L339.025113,11.5853932 L339.327351,11.6983697 C339.717603,11.6499512 340.599408,11.5710469 341.281935,11.5226284 L341.677169,11.2608098 L342.205256,10.9111206 C342.593848,11.1155543 343.050526,11.2841224 343.221573,11.2841224 C343.390959,11.2841224 343.849299,11.081482 343.993775,10.9971979 C344.138252,10.9129139 345.113053,11.1424535 345.637818,11.2679829 C346.160922,11.3917191 347.675434,10.9577458 347.811608,10.9147072 C347.947781,10.8698752 348.633629,11.6714705 348.676806,11.4419309 C348.721643,11.2088048 349.19991,10.6797877 349.65991,10.6779944 L350.066769,10.7048936 L350.589874,10.7389659 C351.146191,10.9864383 351.931678,11.1281072 352.335216,11.0563761 C352.737093,10.984645 353.985902,10.6026768 354.291461,10.539912 C354.59702,10.475354 355.385829,10.8017306 355.432327,10.5865373 C355.480486,10.3713439 355.709655,9.81901424 355.844168,9.82977391 L355.910594,9.88715881 C356.442002,10.3444447 356.888716,10.8824281 357.79211,10.3265119 L358.052831,10.1669102 C358.56099,10.2727136 359.177091,10.3318918 359.422867,10.2978195 C359.668643,10.2637472 360.410953,10.5165994 360.575358,10.5363255 L360.716513,10.5040465 L361.256224,10.3856901 C361.847415,10.2476077 362.715935,10.1866362 363.184238,10.2511943 L363.616006,10.2888531 L363.948136,10.3157523 C364.398172,9.95171682 364.891385,9.82798063 365.044165,10.0360009 C365.196944,10.2476077 365.685175,10.507633 365.907702,10.3121657 C366.130229,10.1149051 367.015355,9.70603772 367.249507,9.95171682 C367.485319,10.1956026 368.292395,10.4161758 368.994849,10.4735607 L369.556149,10.5703978 L370.109145,10.6672348 C370.516004,10.4950801 371.181924,10.3300985 371.588783,10.3031993 L371.942502,10.1292514 L372.113549,10.0449673 C372.375931,10.0915925 373.257736,9.93737059 374.073115,9.70245116 L374.875208,10.2745069 L375.298674,10.5775709 C376.105749,10.5327389 376.803222,10.249401 376.846399,9.94813026 C376.889576,9.64865282 377.880983,9.85308652 378.123438,9.97144288 C378.365893,10.0897992 379.360622,10.1633236 379.68943,10.2296749 C380.0199,10.2960262 380.828636,9.87639914 380.896722,9.91047142 C380.964809,9.94454371 381.258744,10.1758766 381.429791,10.3157523 C381.600838,10.455628 382.877877,10.7425525 382.683581,10.539912 C382.489285,10.3372716 382.529141,10.1131118 383.103725,10.3856901 L383.724808,9.76342262 C383.98553,9.5033973 384.868995,9.69348477 385.465168,9.72755706 L385.90524,9.75445623 C386.240692,10.0521404 386.597731,10.3103724 386.699031,10.3247187 C386.80033,10.3426514 387.633976,10.3569977 388.449355,10.4394885 L389.012315,9.77418229 L389.10199,9.66837888 C389.890799,9.96426977 390.462062,10.0413807 390.369066,9.84232686 C390.27773,9.64327299 390.129932,9.13756856 390.198019,9.06583744 C390.266105,8.99231304 390.845672,8.87754324 391.372098,8.79863901 C391.900184,8.71973477 393.361556,9.20391985 393.600689,9.07480383 L393.711953,9.12860217 L394.225093,9.38145439 C394.839533,9.35276194 395.580183,9.46035862 395.869136,9.61816709 C396.159749,9.77597557 397.20928,8.87037013 397.87354,8.42922372 L398.522853,8.67310954 L399.276788,8.9546542 C399.721842,8.57985908 400.143647,8.26603541 400.213394,8.2588623 C400.283142,8.25168919 400.552167,8.17637151 400.758087,8.03111598 C400.965668,7.88586046 401.835849,8.28934803 402.063358,8.41487749 Z M100.073,106.958 L100.785052,107.312371 C101.138874,107.261375 101.734269,107.315068 102.348318,107.376141 L102.874014,107.428027 C103.133948,107.452604 103.385609,107.47343 103.611451,107.482845 L103.613,107.482 L103.602362,107.488112 L103.602362,107.488112 C103.466188,107.56881 102.752109,107.706892 102.052976,107.832422 L101.433554,107.615435 C101.111388,107.504252 100.805828,107.358996 100.495287,107.2245 C100.423488,107.193487 100.353965,107.150579 100.285139,107.104073 L100.147947,107.008725 C100.12508,106.992854 100.102174,106.977197 100.07917,106.962064 L100.073,106.958 Z M96.276,106.738 L96.3060599,106.741597 C96.5349241,106.760847 96.9201242,106.781438 97.4257965,106.80266 L97.476,106.804 L97.4265361,106.866 C97.3732777,106.934071 97.3175161,107.011527 97.2586816,107.098971 L96.8435193,107.714065 C96.666162,107.276147 96.469674,106.936357 96.3125234,106.772551 L96.276,106.738 Z M107.527,107.051 L107.742472,107.054413 C108.370737,107.064123 108.982047,107.072602 109.563334,107.079593 L109.85,107.082 L109.901083,107.128007 C109.925722,107.148026 109.951147,107.166302 109.977664,107.18225 L110.035,107.21 L109.89991,107.208526 C109.852261,107.208149 109.806547,107.208062 109.76337,107.208361 C109.243587,107.211947 107.89514,107.445074 107.841999,107.312371 C107.809118,107.231674 107.689552,107.111596 107.560061,107.060595 L107.527,107.051 Z M110.646,107.091 L110.894086,107.093381 C110.999063,107.09427 111.102421,107.095091 111.204055,107.095842 L111.479,107.097 L111.483127,107.128896 L111.483127,107.128896 L111.494,107.164 C111.437435,107.179612 111.398487,107.190204 111.372539,107.197601 C111.25145,107.232122 110.900373,107.228809 110.525986,107.220768 L110.389,107.217 L110.434297,107.204774 C110.450904,107.197153 110.528228,107.153442 110.634068,107.09785 L110.646,107.091 Z M102.639,106.956 L102.727903,106.958277 C102.979132,106.96402 103.233085,106.969673 103.488926,106.975222 L103.592,106.977 L103.398126,107.090005 L103.230401,107.188635 C103.095888,107.154819 102.922333,107.088724 102.741894,107.005877 L102.639,106.956 Z M98.646,106.847 L98.6807064,106.848844 C98.8691286,106.855061 99.0652941,106.861289 99.2683664,106.86751 L99.449,106.872 L99.3916127,106.904421 C99.3326027,106.942745 99.2710955,106.994222 99.2066232,107.061312 C99.1617857,107.106144 98.8462623,107.041586 98.7549266,106.951922 L98.6713937,106.870726 L98.6713937,106.870726 L98.646,106.847 Z M108.7,106.72 L104.448,106.813 L104.499203,106.817565 C104.867727,106.854175 105.271331,106.92812 105.520148,106.937705 L105.529,106.937 L105.461393,106.951608 C105.430083,106.960167 105.400002,106.970399 105.371781,106.982173 L105.311,107.012 L105.430065,107.01459 L105.430065,107.01459 L105.986,107.024 L105.855863,106.937576 L105.77,106.925 L105.929065,106.907585 C106.260293,106.867291 106.62498,106.804947 106.813515,106.800254 L106.892132,106.80308 C107.079786,106.828186 107.747367,106.858672 108.376753,106.867638 L108.376753,106.867638 L108.7,106.72 Z M102.445,106.856 L102.560351,106.918022 L102.560351,106.918022 L102.639,106.956 L102.353208,106.949597 C101.73247,106.935027 101.131374,106.919951 100.56299,106.904628 L100.423,106.9 L102.445,106.856 Z M112.824,106.631 L111.799,106.653 L111.761942,106.703765 C111.711948,106.766519 111.664264,106.811534 111.62085,106.80846 C111.555498,106.803713 111.481665,106.808851 111.404644,106.816896 L111.399,106.817 L111.414795,106.817931 C111.450368,106.824683 111.474958,106.842084 111.484538,106.873158 L111.487,106.925 L111.641492,106.929395 C112.111758,106.925577 112.592949,106.782654 112.822636,106.632606 L112.824,106.631 Z M97.5046175,106.770859 C97.9117977,106.30018 98.1769938,106.410971 98.5917942,106.795495 L98.646,106.847 L98.4039852,106.839527 C98.1332805,106.830222 97.8809392,106.820958 97.6497845,106.811792 L97.476,106.804 Z M111.998459,106.380841 C111.659981,106.377955 111.25909,106.378196 110.812616,106.381142 L110.658,106.382 L110.656012,106.410352 C110.650347,106.488202 110.654242,106.552871 110.666132,106.606429 L110.673,106.627 L110.687503,106.623752 L110.687503,106.623752 L110.75,106.676 L111.799,106.653 L111.812633,106.636222 C111.846843,106.588749 111.881789,106.537889 111.91689,106.492634 L111.969586,106.430078 L112.016,106.38 Z M34.3456057,82.1454912 C34.7480782,81.7970571 34.8564362,82.1706558 35.1021767,82.2732503 L35.1021767,82.2732503 L35.3769416,82.3874592 C35.7020155,82.4590818 35.9825853,82.6913711 36,82.9023673 L36,82.9023673 L35.9187315,83.0010902 C35.8631453,83.0669055 35.8071113,83.1408478 35.7504318,83.2179372 L35.5782592,83.4536676 C35.3746708,83.7280823 35.1607533,83.980049 34.9280299,83.9960629 C33.9237836,84.0657497 34.6958342,83.1907932 34.2856218,82.919789 C33.7864011,82.5907124 34.0302066,82.4223026 34.3456057,82.1454912 Z M40.1340896,73.4529994 C40.4380896,72.9489002 40.7840896,72.8512065 40.9080896,73.2322118 L40.9080896,73.2322118 L40.8740896,73.4998924 C40.8040896,74.0704233 40.9940896,74.4006278 41.7840896,74.4475207 L41.7840896,74.4475207 L41.8840896,74.4533824 C42.0100896,74.8343876 41.7720896,75.0708062 41.3580896,74.9809281 C40.9420896,74.889096 39.8300896,73.9570986 40.1340896,73.4529994 Z M108.468008,15.3455521 L108.345,15.353 L108.22802,15.4006919 C108.101729,15.4523649 107.97336,15.5064289 107.848672,15.5606405 L107.665122,15.6417882 L107.16,15.638 L108.001422,16.3393734 C108.107703,16.4290373 108.693912,16.0829346 109.050952,15.9287127 L109.238605,15.8480152 C109.422937,15.7440051 110.195139,15.4785999 110.954056,15.2562334 C111.198988,15.1852014 110.085368,15.2393294 108.468008,15.3455521 Z M101.776,15.682 L101.767625,15.7633495 L101.767625,15.7633495 L101.754,15.842 L101.650647,15.8501814 C100.767141,15.9203783 100.076706,15.9771014 99.7452205,16.0061723 L99.74,16.006 L99.8320668,15.9931923 C100.016082,15.9655089 100.260555,15.9235786 100.517148,15.8770409 L100.827783,15.8196011 C100.982915,15.7903924 101.135449,15.7609131 101.274943,15.7332454 C101.389821,15.7104602 101.558432,15.6941532 101.76087,15.6830727 L101.776,15.682 Z M103.724599,15.6821937 L103.781,15.684 L103.52915,15.703454 C103.046396,15.7405466 102.581723,15.7767195 102.150709,15.8106412 L102.144,15.81 L102.003,15.672 L102.204954,15.6675095 C102.682347,15.6581734 103.241974,15.6664057 103.724599,15.6821937 Z M105.479707,15.1755359 C105.699743,15.2840292 105.962956,15.390281 106.20977,15.4738925 L106.282,15.497 L106.220919,15.5019808 C105.823021,15.5308521 105.418748,15.5606687 105.016078,15.5907489 L104.965,15.594 L104.988155,15.5754369 L105.479707,15.1755359 Z" id="Combined-Shape"></path>
                </g>
            </g>
        </g>
    </g>
</svg>